<svg width="93" height="24" viewBox="0 0 692 178" version="1.1" xmlns="http://www.w3.org/2000/svg">
	<path fill="currentColor" opacity="1.00" d=" M 620.08 10.44 C 631.76 7.24 643.25 3.17 654.99 0.28 C 667.12 3.54 679.02 7.69 691.16 10.90 C 693.15 25.32 690.98 40.29 685.77 53.85 C 680.27 67.86 669.53 80.44 654.82 85.04 C 644.46 81.66 635.40 74.64 629.60 65.40 C 619.70 49.96 616.65 30.98 617.97 12.92 C 617.79 11.61 618.86 10.61 620.08 10.44 Z" />
	<path fill="currentColor" opacity="1.00" d=" M 3.35 39.28 C 7.60 30.78 16.62 25.00 26.11 24.63 C 32.79 24.42 39.86 24.00 46.06 26.96 C 53.48 30.18 59.02 37.03 61.17 44.76 C 62.83 51.13 62.12 57.76 62.26 64.26 C 55.14 66.60 48.01 68.94 40.87 71.26 C 40.80 64.84 40.98 58.42 40.82 52.00 C 40.89 48.39 37.80 45.06 34.14 45.11 C 30.52 44.99 26.03 44.34 23.35 47.40 C 21.13 49.68 21.70 53.10 21.60 55.99 C 21.86 61.84 21.04 67.81 22.36 73.57 C 23.53 77.98 28.36 79.30 31.95 81.14 C 38.48 84.55 45.39 87.34 51.46 91.58 C 58.25 96.48 61.84 104.74 62.43 112.93 C 63.19 123.61 62.77 134.33 62.89 145.03 C 63.07 152.13 63.06 159.77 58.97 165.93 C 55.85 171.68 50.35 175.60 44.39 178.00 L 18.36 178.00 C 8.42 174.62 1.47 165.33 0.00 155.08 L 0.00 140.14 C 7.09 137.62 14.27 135.40 21.41 133.04 C 21.48 139.37 21.30 145.70 21.46 152.03 C 21.43 155.17 23.82 158.44 27.09 158.67 C 30.27 158.86 33.50 159.00 36.66 158.49 C 40.25 157.50 41.85 153.50 41.52 150.05 C 41.31 138.72 41.83 127.37 41.24 116.06 C 41.04 110.10 35.72 106.38 30.77 104.23 C 22.91 99.97 13.82 97.15 7.93 90.05 C 2.11 83.54 -0.16 74.59 0.27 66.00 C 0.76 57.09 -1.37 47.41 3.35 39.28 Z" />
	<path fill="currentColor" opacity="1.00" d=" M 79.29 25.77 C 88.60 25.75 97.91 25.76 107.22 25.76 C 111.51 60.85 115.75 95.94 120.00 131.03 C 120.45 133.75 120.07 136.88 122.08 139.08 C 123.24 135.51 123.39 131.74 123.86 128.05 C 128.04 93.96 132.12 59.86 136.32 25.77 C 145.64 25.76 154.97 25.75 164.30 25.77 C 164.33 76.51 164.30 127.26 164.31 178.00 L 142.91 178.00 C 142.92 150.33 142.90 122.66 142.92 95.00 C 142.91 92.47 142.79 89.95 142.64 87.44 C 138.04 117.67 132.86 147.82 127.90 178.00 L 115.57 178.00 C 110.57 147.82 105.78 117.61 100.64 87.45 C 100.56 117.03 100.65 146.61 100.60 176.18 C 100.51 176.64 100.33 177.55 100.24 178.00 L 79.28 178.00 C 79.28 127.26 79.26 76.51 79.29 25.77 Z" />
	<path fill="currentColor" opacity="1.00" d=" M 176.47 178.00 C 182.51 127.24 188.33 76.46 194.51 25.71 C 206.00 25.82 217.50 25.72 229.00 25.77 C 234.98 76.51 240.96 127.25 246.93 178.00 L 225.19 178.00 C 224.39 169.84 223.64 161.68 222.82 153.52 C 215.36 153.52 207.90 153.53 200.44 153.51 C 199.79 161.50 198.83 169.48 198.45 177.48 L 198.87 178.00 L 176.47 178.00 M 202.51 133.04 C 208.57 133.05 214.63 133.04 220.70 133.04 C 217.86 104.08 215.24 75.09 212.22 46.15 L 210.95 46.86 C 207.88 75.54 205.35 104.32 202.51 133.04 Z" />
	<path fill="currentColor" opacity="1.00" d=" M 259.12 25.76 C 270.08 25.78 281.03 25.71 291.98 25.79 C 299.63 25.70 307.22 28.97 312.38 34.62 C 317.30 39.77 319.72 46.91 319.74 53.96 C 319.78 70.98 319.77 88.00 319.74 105.02 C 319.84 114.13 314.94 122.84 307.58 128.05 C 312.41 144.71 317.19 161.38 322.14 178.00 L 300.74 178.00 C 296.30 162.95 292.04 147.85 287.68 132.78 C 285.27 132.78 282.87 132.76 280.47 132.75 C 280.37 147.83 280.45 162.92 280.43 178.00 L 259.09 178.00 C 259.11 127.25 259.06 76.51 259.12 25.76 M 280.43 46.29 C 280.44 68.29 280.40 90.29 280.45 112.28 C 284.86 112.14 289.38 112.73 293.70 111.59 C 297.19 110.35 298.53 106.42 298.36 103.00 C 298.35 87.02 298.43 71.04 298.33 55.06 C 298.40 51.67 296.78 47.89 293.31 46.84 C 289.09 45.90 284.71 46.40 280.43 46.29 Z" />
	<path fill="currentColor" opacity="1.00" d=" M 325.25 25.76 C 344.74 25.76 364.24 25.75 383.74 25.77 C 383.77 32.60 383.75 39.44 383.76 46.27 C 377.57 46.29 371.38 46.28 365.20 46.28 C 365.17 90.19 365.19 134.09 365.18 178.00 L 343.84 178.00 C 343.83 134.09 343.86 90.19 343.83 46.28 C 337.62 46.28 331.42 46.30 325.22 46.27 C 325.24 39.43 325.20 32.60 325.25 25.76 Z" />
	<path fill="currentColor" opacity="1.00" d=" M 387.97 25.77 C 395.22 25.75 402.47 25.76 409.72 25.76 C 412.73 69.78 415.25 113.84 418.48 157.84 C 419.72 156.97 419.65 155.39 419.79 154.07 C 421.65 123.36 423.84 92.66 425.65 61.95 C 424.85 49.87 423.23 37.84 422.19 25.76 C 429.42 25.76 436.66 25.76 443.90 25.76 C 446.72 68.86 449.52 111.95 452.30 155.05 C 452.25 156.21 452.68 157.13 453.61 157.81 C 456.77 113.83 459.39 69.80 462.32 25.81 C 469.55 25.71 476.79 25.77 484.03 25.77 C 479.74 76.52 475.21 127.25 470.84 178.00 L 437.96 178.00 C 437.16 161.47 435.87 144.95 435.40 128.41 C 433.66 144.88 433.20 161.48 431.97 178.00 L 401.19 178.00 C 396.78 127.26 392.31 76.52 387.97 25.77 Z" />
	<path fill="currentColor" opacity="1.00" d=" M 497.15 25.76 C 515.93 25.76 534.71 25.76 553.49 25.76 C 553.54 32.60 553.52 39.44 553.50 46.28 C 541.83 46.29 530.15 46.28 518.47 46.29 C 518.47 54.62 518.45 62.95 518.48 71.28 C 527.94 71.28 537.41 71.28 546.87 71.27 C 546.90 78.10 546.89 84.93 546.88 91.76 C 537.42 91.77 527.95 91.77 518.49 91.76 C 518.43 113.68 518.48 135.60 518.47 157.52 C 531.58 157.53 544.68 157.51 557.79 157.53 C 557.80 164.35 557.79 171.18 557.80 178.00 L 497.13 178.00 C 497.14 127.25 497.10 76.51 497.15 25.76 Z" />
	<path fill="currentColor" opacity="1.00" d=" M 572.08 25.76 C 581.04 25.75 590.01 25.78 598.98 25.74 C 603.48 25.71 608.08 25.83 612.37 27.36 C 613.02 43.94 617.62 60.90 628.29 73.91 C 626.61 75.89 624.71 77.71 622.39 78.91 C 630.65 81.29 634.69 90.15 634.79 98.18 C 634.96 114.46 634.79 130.75 634.87 147.03 C 634.93 151.39 634.79 155.87 633.17 159.98 C 629.81 169.62 620.61 176.68 610.55 178.00 L 572.05 178.00 C 572.07 127.25 572.02 76.51 572.08 25.76 M 593.39 46.29 C 593.40 54.62 593.35 62.96 593.42 71.29 C 597.21 71.05 601.17 71.84 604.85 70.70 C 609.03 68.93 609.36 63.88 609.23 59.96 C 609.13 55.69 609.80 50.09 605.56 47.49 C 601.81 45.64 597.43 46.47 593.39 46.29 M 593.39 157.52 C 598.26 157.36 603.21 157.94 608.03 157.05 C 611.66 156.27 613.59 152.42 613.43 148.93 C 613.50 132.96 613.49 116.98 613.44 101.01 C 613.49 97.61 612.23 93.63 608.70 92.44 C 603.73 91.20 598.55 92.03 593.50 91.70 C 593.23 113.63 593.46 135.58 593.39 157.52 Z" />
</svg>
