<?xml version="1.0" encoding="utf-8"?>
<svg width="558pt" height="91pt" viewBox="0 0 558 91" version="1.1" xmlns="http://www.w3.org/2000/svg">
  <g id="#d2e54dff"/>
  <g id="#2ea89bff" style="" transform="matrix(1.008476, 0, 0, 1.059302, 0.689541, -3.256295)">
    <path fill="#2ea89b" opacity="1.00" d="M 490.955 12.831 C 495.945 11.061 504.251 8.155 507.478 7.092 C 507.466 15.841 506.775 29.605 507.615 35.094 C 513.175 33.001 519.195 31.363 525.255 32.294 C 537.825 33.717 549.165 42.993 551.475 54.696 C 552.345 60.483 552.445 66.679 549.615 72.056 C 546.495 79.164 539.945 84.653 532.315 87.398 C 527.115 89.379 521.345 89.128 515.875 88.681 C 501.595 86.514 490.705 73.759 490.805 60.427 M 516.625 47.998 C 506.815 50.733 504.075 64.148 511.605 70.289 C 517.365 75.843 528.325 75.071 533.115 68.772 C 536.055 65.637 536.235 61.181 535.605 57.264 C 533.775 49.858 524.205 45.086 516.625 47.998 Z" style=""/>
    <path fill="#2ea89b" opacity="1.00" d="M 15.76 7.78 C 23.53 3.13 33.28 2.41 41.85 5.12 C 48.69 6.83 54.613 10.881 60.253 14.941 C 56.597 20.706 54.834 23.133 50.393 28.87 C 44.993 24.7 39.05 20.26 32.04 19.57 C 27.68 19.06 24.024 19.556 21.744 23.843 C 20.907 26.643 21.209 29.963 24.53 32.43 C 34.884 38.524 47.18 39.82 55.62 48.36 C 65.03 57.89 62.48 75.25 51.87 82.84 C 42.05 89.87 28.69 90.23 17.6 86.28 C 10.64 83.87 -0.765 73.188 -0.765 73.188 C 2.654 68.801 5.95 65.561 11.72 60.85 C 17.06 69.06 27.18 74.48 37.02 72.1 C 41.23 71.24 45.84 66.76 43.7 62.22 C 41.66 58.17 37 56.56 33.07 54.9 C 24.77 51.87 15.95 48.91 9.63 42.4 C 4.81 37.44 3.61 30.03 4.6 23.4 C 5.68 16.81 10.34 11.39 15.76 7.78 Z"/>
    <path fill="#2ea89b" opacity="1.00" d="M 296.51 14.62 C 301.79 12.64 307.14 10.87 312.52 9.19 C 312.55 15.34 312.64 22.281 312.6 28.431 C 318.811 28.349 323.87 28.364 329.55 28.41 C 329.44 33.44 329.71 38.47 329.58 43.51 C 324.26 43.64 318.399 43.488 313.089 43.504 C 312.885 46.637 313.035 47.237 312.986 50.293 C 313.116 56.783 311.81 62.1 316.9 67.07 C 320.02 70.97 324.85 72.67 329.6 73.56 C 329.62 78.89 329.365 83.737 329.155 89.067 C 320.135 88.507 311.43 85.58 305.25 78.81 C 300.21 72.72 296.49 65.13 296.51 57.09 C 296.52 42.93 296.52 28.77 296.51 14.62 Z"/>
    <path fill="#2ea89b" opacity="1.00" d="M 258.53 38.57 C 265.13 31.47 274.65 26.35 284.59 27.29 C 284.67 32.57 284.71 37.85 284.47 43.13 C 278.28 43.42 272.05 46.39 268.84 51.86 C 266.43 55.08 266.21 59.2 266.03 63.06 C 265.22 71.5 266.009 80.535 265.931 89.028 C 260.861 88.968 254.708 88.823 249.648 88.983 C 249.327 81.677 249.199 74.08 249.237 66.932 C 249.293 56.529 251.6 46.23 258.53 38.57 Z"/>
    <path fill="#2ea89b" opacity="1.00" d="M 74.54 28.46 C 79.63 27.01 81.57 26.943 84.327 27.123 C 87.97 27.53 91.13 29.29 91.46 29.82 C 96.25 28.95 102.02 27.793 106.84 29.163 C 113.113 30.898 113.922 31.997 117.372 34.057 C 119.362 35.477 118.395 35.004 120.022 33.885 C 127.861 27.647 141.55 27.38 149.76 32.19 C 155.26 35.87 159.76 41.38 161.32 47.9 C 163.04 54.8 162.14 61.96 162.34 68.99 C 162.18 75 162.232 85.505 162.204 88.957 C 157.229 88.89 151.684 88.895 146.277 88.941 C 145.977 77.501 146.36 65.48 146.01 54.05 C 145.83 51.39 145.374 48.713 143.148 46.799 C 140.462 44.348 134.129 44.09 131.42 45.56 C 127.975 47.387 126.43 51.15 126.5 54.94 C 126.38 66.07 126.508 77.861 126.408 88.991 C 121.078 88.961 116.187 88.977 110.366 89.036 C 110.276 77.716 110.63 65.3 110.38 53.99 C 110.46 47.17 102.506 42.396 95.733 45.829 C 92.006 47.718 90.79 52.83 90.71 56.99 C 90.63 67.46 90.99 78.555 90.7 89.015 C 85.64 88.955 79.183 88.892 74.28 88.884 C 74.175 86.586 74.68 46.29 74.54 28.46 Z"/>
    <path fill="#2ea89b" opacity="1.00" d="M 183.42 36.42 C 188.95 30.57 197.063 27.264 204.96 27.6 C 212.989 27.942 215.666 29.413 219.866 30.813 C 221.535 29.251 224.621 27.959 227.673 27.733 C 232.13 27.403 234.289 28.009 234.51 28.03 C 234.4 48.12 234.551 68.861 234.361 88.951 C 229.301 88.982 225.174 89.31 220.572 86.854 C 219.823 86.454 215.557 88.609 212.843 88.802 C 203.771 89.449 192.79 88.55 185.58 82.43 C 171.37 71.93 169.94 48.07 183.42 36.42 M 200.24 44.51 C 191.16 47.25 187.02 59.51 193 66.98 C 197.15 72.89 205.74 74.26 211.93 70.98 C 214.517 69.511 218.759 66.962 219.608 59.03 C 220.702 48.339 209.14 41.13 200.24 44.51 Z"/>
    <path fill="#2ea89b" opacity="1.00" d="M 335.14 28.45 C 340.77 28.32 346.4 28.26 352.03 28.5 C 355.04 38.82 358.92 48.86 362.12 59.12 C 365.78 49.03 368.45 38.63 371.79 28.44 C 376.23 28.32 380.67 28.34 385.12 28.5 C 387.85 38.88 391.32 49.06 394.87 59.19 C 397.79 48.84 401.71 38.79 404.84 28.5 C 410.47 28.37 416.1 28.28 421.73 28.54 C 415.79 46.21 409.62 63.373 403.53 80.993 C 402.338 84.402 402.055 85.417 400.854 88.932 C 396.734 88.942 393.812 89.066 387.52 88.894 C 384.15 77.7 381.843 68.087 378.15 58.98 C 377.09 62.81 375.78 66.57 374.53 70.34 C 372.52 76.38 370.688 81.745 368.262 89.02 C 364.032 88.94 359.856 88.889 355.626 88.929 C 348.466 69.059 341.71 48.51 335.14 28.45 Z"/>
    <path fill="#2ea89b" opacity="1.00" d="M 438.25 32.21 C 448.33 26.23 461.9 26.92 471.44 33.67 C 476.45 37.75 480.89 42.99 482.59 49.36 C 483.95 54.73 484.6 60.35 483.8 65.87 C 472.355 65.957 451.424 65.622 441.018 65.89 C 445.158 73.03 459.331 75.181 465.391 69.961 C 470.03 73.993 472.357 76.006 476.004 79.32 C 471.234 83.29 468.175 86.528 458.02 88.24 C 446.44 89.87 433.56 84.58 427.84 74.1 C 418.73 60.53 424.02 40.04 438.25 32.21 M 441.23 50.33 C 449.04 50.7 456.87 50.42 464.69 50.48 C 462.884 47.737 461.847 44.18 452.198 44.006 C 444.294 44.791 442.719 47.82 441.23 50.33 Z"/>
  </g>
</svg>